<svg width="175" height="175" viewBox="0 0 175 175" fill="none" xmlns="http://www.w3.org/2000/svg">
<g clip-path="url(#clip0_330_924)">
<rect width="175" height="175" fill="white"/>
<path d="M-51.3267 68.6314L-14.9114 105.047L-8.25255 98.3879L-37.3848 69.2557L-36.7605 68.6314L-0.0851179 90.2205L10.0071 80.1282L-11.5819 43.4528L-10.9577 42.8285L18.1746 71.9608L24.8334 65.302L-11.5819 28.8867L-23.4429 40.7477L-1.90588 77.6832L-2.53014 78.3075L-39.4657 56.7704L-51.3267 68.6314Z" fill="black"/>
<path d="M-52.0156 -11.5471L-15.6003 24.8682L-8.94152 18.2094L-38.0738 -10.9228L-37.4495 -11.5471L-0.774083 10.042L9.31816 -0.0502282L-12.2709 -36.7256L-11.6466 -37.3499L17.4856 -8.21766L24.1444 -14.8765L-12.2709 -51.2918L-24.1319 -39.4308L-2.59485 -2.49525L-3.21911 -1.87099L-40.1546 -23.408L-52.0156 -11.5471Z" fill="black"/>
<path d="M6.98559 7.33642C-0.08939 14.4114 -1.59802 24.0354 4.90471 30.5382C11.5115 37.145 18.5865 35.2722 27.7943 29.3937L28.3666 29.0295C34.193 25.284 37.9386 23.6193 41.1119 26.7926C43.8171 29.4977 44.0772 33.9196 39.6553 38.3415C34.141 43.8558 28.5747 43.3876 24.1008 38.9137L23.1644 37.9773L16.4015 44.7401L17.546 45.8846C26.0776 54.4162 36.586 53.4798 45.4818 44.5841C53.233 36.8328 54.8457 27.0007 47.5106 19.6656C40.9038 13.0588 33.8289 14.8276 24.673 20.654L24.1008 21.0182C18.7425 24.3996 14.8929 27.0007 11.4595 23.5672C8.96242 21.0702 9.37859 17.0125 13.0201 13.371C17.1819 9.20921 21.6558 8.37685 25.8175 12.5386L26.91 13.6311L33.5688 6.97225L32.0081 5.4116C24.725 -1.87146 14.7889 -0.466867 6.98559 7.33642Z" fill="black"/>
<path d="M28.1631 -10.858L64.5784 25.5573L71.2372 18.8985L42.105 -10.2338L42.7292 -10.858L79.4046 10.731L89.4969 0.638794L67.9078 -36.0366L68.5321 -36.6609L97.6643 -7.52864L104.323 -14.1874L67.9078 -50.6027L56.0468 -38.7418L77.5839 -1.80623L76.9596 -1.18197L40.0241 -22.719L28.1631 -10.858Z" fill="black"/>
<path d="M-50.6221 148.825L-14.2068 185.24L-7.54796 178.581L-36.6802 149.449L-36.0559 148.825L0.619472 170.414L10.7117 160.322L-10.8774 123.646L-10.2531 123.022L18.8791 152.154L25.5379 145.496L-10.8774 109.08L-22.7383 120.941L-1.20129 157.877L-1.82555 158.501L-38.7611 136.964L-50.6221 148.825Z" fill="black"/>
<path d="M8.37865 167.708C1.30368 174.783 -0.204957 184.407 6.29778 190.91C12.9046 197.517 19.9795 195.644 29.1874 189.766L29.7596 189.402C35.5861 185.656 39.3317 183.991 42.505 187.165C45.2101 189.87 45.4703 194.292 41.0484 198.713C35.5341 204.228 29.9677 203.76 25.4938 199.286L24.5574 198.349L17.7946 205.112L18.9391 206.257C27.4707 214.788 37.9791 213.852 46.8748 204.956C54.6261 197.205 56.2388 187.373 48.9037 180.038C42.2969 173.431 35.2219 175.2 26.0661 181.026L25.4938 181.39C20.1356 184.772 16.286 187.373 12.8525 183.939C10.3555 181.442 10.7717 177.384 14.4132 173.743C18.5749 169.581 23.0488 168.749 27.2106 172.911L28.303 174.003L34.9618 167.344L33.4012 165.784C26.1181 158.501 16.1819 159.905 8.37865 167.708Z" fill="black"/>
<path d="M29.5562 149.514L65.9715 185.929L72.6303 179.27L43.498 150.138L44.1223 149.514L80.7977 171.103L90.8899 161.011L69.3009 124.335L69.9251 123.711L99.0574 152.843L105.716 146.185L69.3009 109.769L57.4399 121.63L78.9769 158.566L78.3527 159.19L41.4171 137.653L29.5562 149.514Z" fill="black"/>
<path d="M9.18139 89.0215C2.10641 96.0964 0.597778 105.72 7.10051 112.223C13.7073 118.83 20.7823 116.957 29.9901 111.079L30.5624 110.715C36.3888 106.969 40.1344 105.304 43.3077 108.478C46.0129 111.183 46.273 115.605 41.8511 120.027C36.3368 125.541 30.7705 125.073 26.2966 120.599L25.3602 119.662L18.5973 126.425L19.7418 127.57C28.2734 136.101 38.7818 135.165 47.6776 126.269C55.4288 118.518 57.0415 108.686 49.7064 101.351C43.0996 94.7439 36.0247 96.5126 26.8688 102.339L26.2966 102.703C20.9383 106.085 17.0887 108.686 13.6553 105.252C11.1582 102.755 11.5744 98.6975 15.2159 95.056C19.3777 90.8943 23.8516 90.0619 28.0133 94.2237L29.1058 95.3161L35.7646 88.6573L34.2039 87.0967C26.9208 79.8136 16.9847 81.2182 9.18139 89.0215Z" fill="black"/>
<path d="M28.8672 69.3355L65.2825 105.751L71.9413 99.092L42.8091 69.9598L43.4333 69.3355L80.1087 90.9246L90.201 80.8323L68.6119 44.1569L69.2362 43.5327L98.3684 72.6649L105.027 66.0061L68.6119 29.5908L56.7509 41.4518L78.288 78.3873L77.6637 79.0116L40.7282 57.4745L28.8672 69.3355Z" fill="black"/>
<path d="M87.8684 88.219C80.7934 95.294 79.2848 104.918 85.7875 111.421C92.3943 118.028 99.4693 116.155 108.677 110.276L109.249 109.912C115.076 106.167 118.821 104.502 121.995 107.675C124.7 110.38 124.96 114.802 120.538 119.224C115.024 124.738 109.457 124.27 104.984 119.796L104.047 118.86L97.2843 125.623L98.4288 126.767C106.96 135.299 117.469 134.362 126.365 125.467C134.116 117.715 135.729 107.883 128.393 100.548C121.787 93.9414 114.712 95.7101 105.556 101.537L104.984 101.901C99.6253 105.282 95.7757 107.883 92.3423 104.45C89.8452 101.953 90.2614 97.8951 93.9029 94.2535C98.0647 90.0918 102.539 89.2594 106.7 93.4212L107.793 94.5136L114.452 87.8548L112.891 86.2942C105.608 79.0111 95.6717 80.4157 87.8684 88.219Z" fill="black"/>
<path d="M109.045 70.0244L145.461 106.44L152.12 99.7809L122.987 70.6487L123.612 70.0244L160.287 91.6135L170.379 81.5212L148.79 44.8458L149.414 44.2216L178.547 73.3538L185.205 66.695L148.79 30.2797L136.929 42.1407L158.466 79.0762L157.842 79.7005L120.906 58.1634L109.045 70.0244Z" fill="black"/>
<path d="M88.6706 9.53193C81.5957 16.6069 80.087 26.231 86.5898 32.7337C93.1965 39.3405 100.272 37.4677 109.479 31.5892L110.052 31.2251C115.878 27.4795 119.624 25.8148 122.797 28.9881C125.502 31.6932 125.762 36.1151 121.34 40.537C115.826 46.0513 110.26 45.5831 105.786 41.1092L104.849 40.1728L98.0866 46.9357L99.2311 48.0801C107.763 56.6117 118.271 55.6753 127.167 46.7796C134.918 39.0283 136.531 29.1962 129.196 21.8611C122.589 15.2543 115.514 17.0231 106.358 22.8495L105.786 23.2137C100.428 26.5951 96.578 29.1962 93.1445 25.7628C90.6475 23.2657 91.0637 19.208 94.7052 15.5665C98.8669 11.4047 103.341 10.5724 107.503 14.7341L108.595 15.8266L115.254 9.16777L113.693 7.60712C106.41 0.324057 96.4739 1.72865 88.6706 9.53193Z" fill="black"/>
<path d="M108.356 -10.1539L144.772 26.2614L151.431 19.6026L122.298 -9.52965L122.923 -10.1539L159.598 11.4351L169.69 1.34291L148.101 -35.3325L148.725 -35.9568L177.858 -6.82453L184.516 -13.4833L148.101 -49.8986L136.24 -38.0376L157.777 -1.10212L157.153 -0.477856L120.217 -22.0149L108.356 -10.1539Z" fill="black"/>
<path d="M167.358 8.72956C160.283 15.8045 158.774 25.4286 165.277 31.9313C171.884 38.5381 178.959 36.6653 188.166 30.7868L188.739 30.4227C194.565 26.6771 198.311 25.0124 201.484 28.1857C204.189 30.8909 204.449 35.3127 200.027 39.7346C194.513 45.2489 188.947 44.7807 184.473 40.3068L183.536 39.3704L176.774 46.1333L177.918 47.2778C186.45 55.8094 196.958 54.873 205.854 45.9772C213.605 38.226 215.218 28.3938 207.883 21.0587C201.276 14.452 194.201 16.2207 185.045 22.0472L184.473 22.4113C179.115 25.7927 175.265 28.3938 171.832 24.9604C169.334 22.4633 169.751 18.4056 173.392 14.7641C177.554 10.6024 182.028 9.77 186.19 13.9317L187.282 15.0242L193.941 8.3654L192.38 6.80475C185.097 -0.478315 175.161 0.926278 167.358 8.72956Z" fill="black"/>
<path d="M90.0637 169.904C82.9887 176.979 81.4801 186.603 87.9828 193.106C94.5896 199.713 101.665 197.84 110.872 191.961L111.445 191.597C117.271 187.852 121.017 186.187 124.19 189.36C126.895 192.065 127.155 196.487 122.733 200.909C117.219 206.423 111.653 205.955 107.179 201.481L106.243 200.545L99.4797 207.308L100.624 208.452C109.156 216.984 119.664 216.047 128.56 207.152C136.311 199.4 137.924 189.568 130.589 182.233C123.982 175.626 116.907 177.395 107.751 183.222L107.179 183.586C101.821 186.967 97.971 189.568 94.5376 186.135C92.0405 183.638 92.4567 179.58 96.0983 175.939C100.26 171.777 104.734 170.944 108.896 175.106L109.988 176.199L116.647 169.54L115.086 167.979C107.803 160.696 97.867 162.101 90.0637 169.904Z" fill="black"/>
<path d="M109.75 150.218L146.165 186.633L152.824 179.975L123.692 150.842L124.316 150.218L160.992 171.807L171.084 161.715L149.495 125.04L150.119 124.415L179.251 153.547L185.91 146.889L149.495 110.473L137.634 122.334L159.171 159.27L158.547 159.894L121.611 138.357L109.75 150.218Z" fill="black"/>
<path d="M168.751 169.102C161.676 176.177 160.168 185.801 166.67 192.303C173.277 198.91 180.352 197.037 189.56 191.159L190.132 190.795C195.959 187.049 199.704 185.384 202.878 188.558C205.583 191.263 205.843 195.685 201.421 200.107C195.907 205.621 190.34 205.153 185.866 200.679L184.93 199.742L178.167 206.505L179.312 207.65C187.843 216.181 198.352 215.245 207.247 206.349C214.999 198.598 216.611 188.766 209.276 181.431C202.669 174.824 195.594 176.593 186.439 182.419L185.866 182.783C180.508 186.165 176.659 188.766 173.225 185.332C170.728 182.835 171.144 178.778 174.786 175.136C178.948 170.974 183.421 170.142 187.583 174.304L188.676 175.396L195.334 168.737L193.774 167.177C186.491 159.894 176.554 161.298 168.751 169.102Z" fill="black"/>
<path d="M169.553 90.4146C162.478 97.4896 160.969 107.114 167.472 113.616C174.079 120.223 181.154 118.35 190.362 112.472L190.934 112.108C196.76 108.362 200.506 106.697 203.679 109.871C206.384 112.576 206.645 116.998 202.223 121.42C196.708 126.934 191.142 126.466 186.668 121.992L185.732 121.055L178.969 127.818L180.113 128.963C188.645 137.494 199.153 136.558 208.049 127.662C215.8 119.911 217.413 110.079 210.078 102.744C203.471 96.137 196.396 97.9058 187.24 103.732L186.668 104.096C181.31 107.478 177.46 110.079 174.027 106.645C171.53 104.148 171.946 100.091 175.588 96.4492C179.749 92.2874 184.223 91.4551 188.385 95.6168L189.477 96.7093L196.136 90.0505L194.575 88.4898C187.292 81.2067 177.356 82.6113 169.553 90.4146Z" fill="black"/>
</g>
<defs>
<clipPath id="clip0_330_924">
<rect width="175" height="175" fill="white"/>
</clipPath>
</defs>
</svg>
