<svg width="36" height="9" viewBox="0 0 36 9" fill="none" xmlns="http://www.w3.org/2000/svg">
<path d="M4.76931 8.02999C3.59247 8.02999 2.61674 7.64655 1.84211 6.87968C1.06749 6.10544 0.680176 5.15055 0.680176 4.01499C0.680176 2.87944 1.06749 1.92823 1.84211 1.16136C2.61674 0.387121 3.59247 0 4.76931 0C5.4769 0 6.12863 0.165909 6.72449 0.497727C7.32781 0.829544 7.79705 1.27934 8.13223 1.84712L7.01498 2.48863C6.80642 2.1052 6.50104 1.80288 6.09883 1.58166C5.70407 1.35308 5.2609 1.23879 4.76931 1.23879C3.93509 1.23879 3.2573 1.50055 2.73591 2.02409C2.22198 2.54762 1.96501 3.21126 1.96501 4.01499C1.96501 4.81873 2.22198 5.48236 2.73591 6.0059C3.2573 6.52943 3.93509 6.7912 4.76931 6.7912C5.2609 6.7912 5.7078 6.68059 6.11001 6.45938C6.51221 6.2308 6.81387 5.92479 7.01498 5.54135L8.13223 6.17181C7.8045 6.73958 7.33898 7.19307 6.73566 7.53226C6.1398 7.86408 5.48435 8.02999 4.76931 8.02999Z" fill="#ffffff"/>
<path d="M10.9314 6.66953H14.1155V7.8862H9.64653V0.143788H10.9314V6.66953Z" fill="#ffffff"/>
<path d="M21.55 6.86862C20.768 7.64287 19.8109 8.02999 18.6787 8.02999C17.5466 8.02999 16.5857 7.64287 15.7962 6.86862C15.0141 6.08701 14.6231 5.1358 14.6231 4.01499C14.6231 2.89419 15.0141 1.94666 15.7962 1.17242C16.5857 0.390807 17.5466 0 18.6787 0C19.8109 0 20.768 0.390807 21.55 1.17242C22.3396 1.94666 22.7343 2.89419 22.7343 4.01499C22.7343 5.1358 22.3396 6.08701 21.55 6.86862ZM16.7012 6.0059C17.2375 6.52943 17.8966 6.7912 18.6787 6.7912C19.4608 6.7912 20.1162 6.52943 20.6451 6.0059C21.1813 5.47499 21.4495 4.81136 21.4495 4.01499C21.4495 3.21863 21.1813 2.55868 20.6451 2.03515C20.1162 1.50424 19.4608 1.23879 18.6787 1.23879C17.8966 1.23879 17.2375 1.50424 16.7012 2.03515C16.1723 2.55868 15.9079 3.21863 15.9079 4.01499C15.9079 4.81136 16.1723 5.47499 16.7012 6.0059Z" fill="#ffffff"/>
<path d="M26.6618 8.02999C25.9095 8.02999 25.269 7.86039 24.7401 7.5212C24.2187 7.18201 23.8538 6.71746 23.6452 6.12757L24.7513 5.48605C25.0641 6.35615 25.7121 6.7912 26.6953 6.7912C27.1795 6.7912 27.5407 6.69903 27.779 6.51469C28.0248 6.32297 28.1477 6.07595 28.1477 5.77363C28.1477 5.45656 28.0174 5.21691 27.7567 5.05469C27.496 4.88509 27.0342 4.70075 26.3713 4.50166C25.9989 4.39105 25.6972 4.28782 25.4663 4.19196C25.2354 4.0961 24.9896 3.96338 24.729 3.79378C24.4757 3.61681 24.2858 3.39929 24.1592 3.14121C24.0325 2.88313 23.9692 2.5808 23.9692 2.23424C23.9692 1.54848 24.215 1.00651 24.7066 0.608332C25.1982 0.202777 25.7903 0 26.483 0C27.1087 0 27.6561 0.151161 28.1254 0.453484C28.5946 0.755807 28.9559 1.17242 29.2091 1.70333L28.1254 2.32272C27.7977 1.6001 27.2502 1.23879 26.483 1.23879C26.1106 1.23879 25.8127 1.32727 25.5892 1.50424C25.3658 1.67384 25.2541 1.90611 25.2541 2.20106C25.2541 2.48863 25.3658 2.71722 25.5892 2.88681C25.8201 3.04904 26.2335 3.22232 26.8294 3.40666C27.1273 3.50252 27.3433 3.57626 27.4774 3.62787C27.6189 3.67211 27.8126 3.74585 28.0584 3.84908C28.3116 3.95232 28.5015 4.05555 28.6282 4.15878C28.7548 4.26201 28.8888 4.39105 29.0304 4.5459C29.1793 4.70075 29.2836 4.87772 29.3432 5.07681C29.4028 5.2759 29.4326 5.5008 29.4326 5.75151C29.4326 6.45201 29.1756 7.00873 28.6617 7.42165C28.1552 7.82721 27.4886 8.02999 26.6618 8.02999Z" fill="#ffffff"/>
<path d="M32.2167 6.66953H35.6802V7.8862H30.9319V0.143788H35.6243V1.36045H32.2167V3.37348H35.345V4.57908H32.2167V6.66953Z" fill="#ffffff"/>
</svg>
