<svg width="35" height="9" viewBox="0 0 35 9" fill="none" xmlns="http://www.w3.org/2000/svg">
<path d="M7.5459 0.499908V8.38368H6.25071V2.76368L3.85179 6.72809H3.69411L1.29519 2.75242V8.38368H0V0.499908H1.39655L3.77295 4.4418L6.16061 0.499908H7.5459Z" fill="#000000"/>
<path d="M12.5529 7.14481H16.0443V8.38368H11.2577V0.499908H15.988V1.73879H12.5529V3.78857H15.7064V5.01619H12.5529V7.14481Z" fill="#000000"/>
<path d="M24.1001 0.499908H25.3953V8.38368H24.3816L20.665 3.03398V8.38368H19.3698V0.499908H20.3834L24.1001 5.84961V0.499908Z" fill="#000000"/>
<path d="M34.1666 7.78677C33.611 8.28232 32.8939 8.5301 32.0154 8.5301C31.137 8.5301 30.4199 8.28232 29.8643 7.78677C29.3087 7.28371 29.0309 6.61171 29.0309 5.77078V0.499908H30.326V5.69194C30.326 6.17247 30.465 6.5554 30.7428 6.84072C31.0281 7.12603 31.4523 7.26869 32.0154 7.26869C32.5786 7.26869 32.999 7.12603 33.2768 6.84072C33.5621 6.5554 33.7048 6.17247 33.7048 5.69194V0.499908H35V5.77078C35 6.61171 34.7222 7.28371 34.1666 7.78677Z" fill="#000000"/>
</svg>
