<svg width="16" height="17" viewBox="0 0 16 17" fill="none" xmlns="http://www.w3.org/2000/svg">
<path d="M6.66071 9.82143C6.66071 10.5107 6.16071 10.7286 5.54643 10.7286H3.93571V8.83929H5.57857C6.24286 8.84286 6.66071 9.11786 6.66071 9.82143ZM6.38571 6.88214C6.38571 6.25 5.89643 6.1 5.35357 6.1H3.93929V7.7H5.46429C6.00357 7.7 6.38571 7.46429 6.38571 6.88214ZM11.1107 7.71071C10.4571 7.71071 10.0214 8.11786 9.97857 8.77143H12.2C12.1393 8.11071 11.7964 7.71071 11.1107 7.71071ZM16 2.21429V14.7857C16 15.7321 15.2321 16.5 14.2857 16.5H1.71429C0.767857 16.5 0 15.7321 0 14.7857V2.21429C0 1.26786 0.767857 0.5 1.71429 0.5H14.2857C15.2321 0.5 16 1.26786 16 2.21429ZM9.70357 5.96429H12.4821V5.28929H9.70357V5.96429ZM8.16786 9.90357C8.16786 9.04286 7.76071 8.3 6.91786 8.06071C7.53214 7.76786 7.85357 7.42857 7.85357 6.73929C7.85357 5.375 6.83571 5.04286 5.66071 5.04286H2.42857V11.9H5.75357C7 11.8929 8.16786 11.2964 8.16786 9.90357ZM13.5714 9.375C13.5714 7.90714 12.7107 6.68214 11.1571 6.68214C9.64286 6.68214 8.61786 7.81786 8.61786 9.31071C8.61786 10.8571 9.59286 11.9179 11.1571 11.9179C12.3429 11.9179 13.1107 11.3857 13.4821 10.2464H12.2786C12.1464 10.6714 11.6143 10.8929 11.2 10.8929C10.4 10.8929 9.98214 10.425 9.98214 9.63214H13.5607C13.5643 9.55 13.5714 9.46071 13.5714 9.375Z" fill="black"/>
</svg>
