<svg width="18" height="18" viewBox="0 0 18 18" fill="none" xmlns="http://www.w3.org/2000/svg">
<rect width="18" height="18" rx="3" fill="white"/>
<path d="M7.4933 10.4866C7.4933 11.2621 6.9308 11.5071 6.23973 11.5071H4.42768V9.3817H6.27589C7.02321 9.38571 7.4933 9.69509 7.4933 10.4866V10.4866ZM7.18393 7.17991C7.18393 6.46875 6.63348 6.3 6.02277 6.3H4.4317V8.1H6.14732C6.75402 8.1 7.18393 7.83482 7.18393 7.17991V7.17991ZM12.4996 8.11205C11.7643 8.11205 11.2741 8.57009 11.2259 9.30536H13.725C13.6567 8.56205 13.271 8.11205 12.4996 8.11205ZM18 1.92857V16.0714C18 17.1362 17.1362 18 16.0714 18H1.92857C0.863839 18 0 17.1362 0 16.0714V1.92857C0 0.863839 0.863839 0 1.92857 0H16.0714C17.1362 0 18 0.863839 18 1.92857ZM10.9165 6.14732H14.0424V5.38795H10.9165V6.14732ZM9.18884 10.579C9.18884 9.61071 8.7308 8.775 7.78259 8.5058C8.47366 8.17634 8.83527 7.79464 8.83527 7.0192C8.83527 5.48437 7.69018 5.11071 6.3683 5.11071H2.73214V12.825H6.47277C7.875 12.817 9.18884 12.146 9.18884 10.579V10.579ZM15.2679 9.98437C15.2679 8.33304 14.2996 6.95491 12.5518 6.95491C10.8482 6.95491 9.69509 8.23259 9.69509 9.91205C9.69509 11.6518 10.792 12.8451 12.5518 12.8451C13.8857 12.8451 14.7496 12.2464 15.1674 10.9647H13.8134C13.6647 11.4429 13.0661 11.692 12.6 11.692C11.7 11.692 11.2299 11.1656 11.2299 10.2737H15.2558C15.2598 10.1813 15.2679 10.0808 15.2679 9.98437Z" fill="#053EFF"/>
</svg>
