<svg width="14" height="14" fill="none" xmlns="http://www.w3.org/2000/svg"><path d="M4.684.868a.27.27 0 0 1 .054-.484 6.98 6.98 0 0 1 5.964.666.269.269 0 0 1 .074.397 10.506 10.506 0 0 1-2.82 2.49A11.375 11.375 0 0 0 4.684.868zm2.31 3.574a10.379 10.379 0 0 0-3.77-3.157.29.29 0 0 0-.276.02A7.074 7.074 0 0 0 .37 4.813a.27.27 0 0 0 .202.344 10.17 10.17 0 0 0 6.421-.714zM13.98 6.24a7 7 0 0 0-1.966-4.14.276.276 0 0 0-.404.021 11.327 11.327 0 0 1-3.076 2.72c.37.64.676 1.313.916 2.012a11.26 11.26 0 0 1 4.234-.317.27.27 0 0 0 .296-.296zM9.746 7.89a11.379 11.379 0 0 1 .02 5.068.27.27 0 0 0 .384.302 7.007 7.007 0 0 0 3.81-5.33.27.27 0 0 0-.236-.303 10.177 10.177 0 0 0-3.978.262zm-1.326-.7a9.599 9.599 0 0 0-.835-1.831 11.254 11.254 0 0 1-7.222.854.27.27 0 0 0-.323.243 6.98 6.98 0 0 0 2.201 5.654.263.263 0 0 0 .41-.061 11.362 11.362 0 0 1 5.769-4.86zM3.5 12.734a.27.27 0 0 0 .1.37A6.925 6.925 0 0 0 7.02 14a6.61 6.61 0 0 0 1.218-.108.255.255 0 0 0 .202-.175c.35-1.043.527-2.137.525-3.237 0-.759-.084-1.515-.249-2.255a10.312 10.312 0 0 0-5.216 4.51z" fill="#fff"/></svg>