<svg width="15" height="14" fill="none" xmlns="http://www.w3.org/2000/svg"><path d="M7.018 4.666A2.34 2.34 0 0 0 4.683 7a2.34 2.34 0 0 0 2.335 2.334A2.34 2.34 0 0 0 9.352 7a2.34 2.34 0 0 0-2.334-2.334zM14.019 7c0-.967.009-1.925-.046-2.89-.054-1.12-.31-2.115-1.129-2.934C12.023.354 11.03.1 9.909.046 8.942-.008 7.984.001 7.019.001 6.054 0 5.096-.01 4.13.046 3.01.1 2.015.356 1.195 1.176.374 1.996.12 2.99.065 4.11.012 5.077.02 6.035.02 7c0 .965-.009 1.925.046 2.89.054 1.12.31 2.115 1.13 2.934.82.822 1.813 1.076 2.934 1.13.967.054 1.925.045 2.89.045.966 0 1.924.01 2.889-.045 1.12-.054 2.115-.31 2.935-1.13.821-.82 1.075-1.814 1.13-2.935.056-.964.045-1.922.045-2.889zm-7.001 3.592A3.587 3.587 0 0 1 3.426 7a3.587 3.587 0 0 1 3.592-3.592A3.587 3.587 0 0 1 10.61 7a3.587 3.587 0 0 1-3.592 3.592zM10.757 4.1a.838.838 0 1 1 0-1.678.838.838 0 1 1 0 1.678z" fill="#fff"/></svg>