<svg width="15" height="14" fill="none" xmlns="http://www.w3.org/2000/svg"><path fill-rule="evenodd" clip-rule="evenodd" d="M.02 1.17A1.17 1.17 0 0 1 1.19 0h11.659a1.169 1.169 0 0 1 1.17 1.17v11.66A1.17 1.17 0 0 1 12.85 14H1.19a1.17 1.17 0 0 1-1.17-1.17V1.17zM5.56 5.338h1.896v.952c.273-.547.973-1.04 2.025-1.04 2.017 0 2.495 1.09 2.495 3.09v3.705H9.936v-3.25c0-1.138-.274-1.781-.969-1.781-.964 0-1.365.693-1.365 1.782v3.25H5.561V5.337zm-3.5 6.62h2.041V5.25H2.061v6.708zm2.334-8.896a1.313 1.313 0 1 1-2.625.058 1.313 1.313 0 0 1 2.625-.058z" fill="#fff"/></svg>